<svg width="122" height="43" viewBox="0 0 122 43" fill="none" xmlns="http://www.w3.org/2000/svg">
<path d="M38.4 9.62582L21.4769 0.380313C21.0248 0.130852 20.5166 0 20 0C19.4834 0 18.9752 0.130852 18.5231 0.380313L1.6 9.62966C1.11671 9.89369 0.713276 10.2824 0.43183 10.7553C0.150385 11.2282 0.0012505 11.7678 0 12.3179V30.6821C0.0012505 31.2322 0.150385 31.7718 0.43183 32.2447C0.713276 32.7176 1.11671 33.1063 1.6 33.3703L18.5231 42.6197C18.9752 42.8691 19.4834 43 20 43C20.5166 43 21.0248 42.8691 21.4769 42.6197L38.4 33.3703C38.8833 33.1063 39.2867 32.7176 39.5682 32.2447C39.8496 31.7718 39.9987 31.2322 40 30.6821V12.3198C39.9998 11.7687 39.8511 11.2279 39.5696 10.7539C39.2881 10.28 38.8841 9.89032 38.4 9.62582ZM20 3.06852L35.4519 11.5172L29.725 14.6451L14.2731 6.19644L20 3.06852ZM20 19.9658L4.54808 11.5172L11.0692 7.95145L26.5212 16.4001L20 19.9658ZM36.9231 30.6898L21.5385 39.0981V22.6214L27.6923 19.2592V26.1103C27.6923 26.5177 27.8544 26.9084 28.1429 27.1965C28.4314 27.4845 28.8227 27.6464 29.2308 27.6464C29.6388 27.6464 30.0301 27.4845 30.3186 27.1965C30.6071 26.9084 30.7692 26.5177 30.7692 26.1103V17.5771L36.9231 14.215V30.6821V30.6898Z" fill="#0FA958"/>
<path d="M53.3283 17.0469V27H51.2775V17.0469H53.3283ZM59.2893 17.0469L55.3449 21.9619L53.0686 24.4092L52.6994 22.4678L54.2375 20.3623L56.7736 17.0469H59.2893ZM56.9582 27L54.0256 22.3994L55.5432 21.1279L59.385 27H56.9582ZM62.273 16.5V27H60.2974V16.5H62.273ZM67.4443 27.1367C66.87 27.1367 66.3551 27.0456 65.8993 26.8633C65.4436 26.6764 65.0562 26.4189 64.7372 26.0908C64.4228 25.7627 64.1812 25.3822 64.0126 24.9492C63.844 24.5117 63.7597 24.0469 63.7597 23.5547V23.2812C63.7597 22.7207 63.8394 22.208 63.9989 21.7432C64.1584 21.2783 64.3863 20.875 64.6825 20.5332C64.9833 20.1914 65.3479 19.9294 65.7763 19.7471C66.2047 19.5602 66.6877 19.4668 67.2255 19.4668C67.7496 19.4668 68.2144 19.5534 68.62 19.7266C69.0256 19.8997 69.3652 20.1458 69.6386 20.4648C69.9166 20.7839 70.1262 21.1667 70.2675 21.6133C70.4088 22.0553 70.4794 22.5475 70.4794 23.0898V23.9102H64.6005V22.5977H68.5448V22.4473C68.5448 22.1738 68.4947 21.93 68.3945 21.7158C68.2987 21.4971 68.1529 21.3239 67.957 21.1963C67.761 21.0687 67.5103 21.0049 67.205 21.0049C66.9452 21.0049 66.7219 21.0618 66.5351 21.1758C66.3482 21.2897 66.1956 21.4492 66.0771 21.6543C65.9631 21.8594 65.8765 22.1009 65.8173 22.3789C65.7626 22.6523 65.7353 22.9531 65.7353 23.2812V23.5547C65.7353 23.8509 65.7763 24.1243 65.8583 24.375C65.9449 24.6257 66.0657 24.8421 66.2206 25.0244C66.3801 25.2067 66.5715 25.348 66.7948 25.4482C67.0227 25.5485 67.2802 25.5986 67.5673 25.5986C67.9228 25.5986 68.2532 25.5303 68.5585 25.3936C68.8684 25.2523 69.135 25.0404 69.3583 24.7578L70.3154 25.7969C70.1604 26.0202 69.9485 26.2344 69.6796 26.4395C69.4153 26.6445 69.0963 26.8132 68.7226 26.9453C68.3489 27.0729 67.9228 27.1367 67.4443 27.1367ZM73.8186 19.6035V27H71.843V19.6035H73.8186ZM71.72 17.6758C71.72 17.3887 71.8203 17.1517 72.0208 16.9648C72.2213 16.778 72.4902 16.6846 72.8274 16.6846C73.1601 16.6846 73.4267 16.778 73.6272 16.9648C73.8323 17.1517 73.9348 17.3887 73.9348 17.6758C73.9348 17.9629 73.8323 18.1999 73.6272 18.3867C73.4267 18.5736 73.1601 18.667 72.8274 18.667C72.4902 18.667 72.2213 18.5736 72.0208 18.3867C71.8203 18.1999 71.72 17.9629 71.72 17.6758ZM77.5133 21.1826V27H75.5446V19.6035H77.3903L77.5133 21.1826ZM77.2262 23.042H76.693C76.693 22.4951 76.7636 22.0029 76.9049 21.5654C77.0462 21.1234 77.2444 20.7474 77.4996 20.4375C77.7549 20.123 78.0579 19.8838 78.4088 19.7197C78.7643 19.5511 79.1608 19.4668 79.5983 19.4668C79.9446 19.4668 80.2614 19.5169 80.5485 19.6172C80.8356 19.7174 81.0817 19.877 81.2868 20.0957C81.4964 20.3145 81.6559 20.6038 81.7653 20.9639C81.8792 21.3239 81.9362 21.7637 81.9362 22.2832V27H79.9537V22.2764C79.9537 21.9482 79.9082 21.693 79.817 21.5107C79.7259 21.3285 79.5914 21.2008 79.4137 21.1279C79.2405 21.0505 79.0263 21.0117 78.7711 21.0117C78.5068 21.0117 78.2767 21.0641 78.0807 21.1689C77.8893 21.2738 77.7298 21.4196 77.6022 21.6064C77.4791 21.7887 77.3857 22.0029 77.3219 22.249C77.2581 22.4951 77.2262 22.7594 77.2262 23.042ZM85.7471 17.0469V27H83.6963V17.0469H85.7471ZM91.708 17.0469L87.7637 21.9619L85.4873 24.4092L85.1182 22.4678L86.6562 20.3623L89.1924 17.0469H91.708ZM89.377 27L86.4443 22.3994L87.9619 21.1279L91.8037 27H89.377ZM96.8246 25.2295V19.6035H98.7933V27H96.9408L96.8246 25.2295ZM97.0433 23.7119L97.6244 23.6982C97.6244 24.1904 97.5674 24.6484 97.4535 25.0723C97.3395 25.4915 97.1686 25.8561 96.9408 26.166C96.7129 26.4714 96.4258 26.7106 96.0795 26.8838C95.7331 27.0524 95.3252 27.1367 94.8558 27.1367C94.4958 27.1367 94.1631 27.0866 93.8578 26.9863C93.557 26.8815 93.2972 26.7197 93.0785 26.501C92.8643 26.2777 92.6957 25.9928 92.5726 25.6465C92.4541 25.2956 92.3949 24.874 92.3949 24.3818V19.6035H94.3636V24.3955C94.3636 24.6143 94.3887 24.7988 94.4388 24.9492C94.4935 25.0996 94.5687 25.2227 94.6644 25.3184C94.7601 25.4141 94.8718 25.4824 94.9994 25.5234C95.1315 25.5645 95.2774 25.585 95.4369 25.585C95.8425 25.585 96.1615 25.5029 96.3939 25.3389C96.6309 25.1748 96.7972 24.9515 96.8929 24.6689C96.9932 24.3818 97.0433 24.0628 97.0433 23.7119ZM102.406 21.2168V27H100.437V19.6035H102.29L102.406 21.2168ZM104.634 19.5557L104.6 21.3809C104.505 21.3672 104.388 21.3558 104.252 21.3467C104.12 21.333 103.999 21.3262 103.889 21.3262C103.611 21.3262 103.37 21.3626 103.165 21.4355C102.964 21.5039 102.796 21.6064 102.659 21.7432C102.527 21.8799 102.426 22.0462 102.358 22.2422C102.294 22.4382 102.258 22.6615 102.249 22.9121L101.852 22.7891C101.852 22.3105 101.9 21.8708 101.996 21.4697C102.092 21.0641 102.231 20.7109 102.413 20.4102C102.6 20.1094 102.828 19.877 103.096 19.7129C103.365 19.5488 103.673 19.4668 104.019 19.4668C104.129 19.4668 104.24 19.4759 104.354 19.4941C104.468 19.5078 104.562 19.5283 104.634 19.5557ZM107.782 19.6035V27H105.807V19.6035H107.782ZM105.684 17.6758C105.684 17.3887 105.784 17.1517 105.984 16.9648C106.185 16.778 106.454 16.6846 106.791 16.6846C107.124 16.6846 107.39 16.778 107.591 16.9648C107.796 17.1517 107.899 17.3887 107.899 17.6758C107.899 17.9629 107.796 18.1999 107.591 18.3867C107.39 18.5736 107.124 18.667 106.791 18.667C106.454 18.667 106.185 18.5736 105.984 18.3867C105.784 18.1999 105.684 17.9629 105.684 17.6758ZM112.954 27.1367C112.379 27.1367 111.864 27.0456 111.409 26.8633C110.953 26.6764 110.566 26.4189 110.247 26.0908C109.932 25.7627 109.691 25.3822 109.522 24.9492C109.353 24.5117 109.269 24.0469 109.269 23.5547V23.2812C109.269 22.7207 109.349 22.208 109.508 21.7432C109.668 21.2783 109.896 20.875 110.192 20.5332C110.493 20.1914 110.857 19.9294 111.286 19.7471C111.714 19.5602 112.197 19.4668 112.735 19.4668C113.259 19.4668 113.724 19.5534 114.129 19.7266C114.535 19.8997 114.874 20.1458 115.148 20.4648C115.426 20.7839 115.636 21.1667 115.777 21.6133C115.918 22.0553 115.989 22.5475 115.989 23.0898V23.9102H110.11V22.5977H114.054V22.4473C114.054 22.1738 114.004 21.93 113.904 21.7158C113.808 21.4971 113.662 21.3239 113.466 21.1963C113.27 21.0687 113.02 21.0049 112.714 21.0049C112.455 21.0049 112.231 21.0618 112.044 21.1758C111.858 21.2897 111.705 21.4492 111.586 21.6543C111.472 21.8594 111.386 22.1009 111.327 22.3789C111.272 22.6523 111.245 22.9531 111.245 23.2812V23.5547C111.245 23.8509 111.286 24.1243 111.368 24.375C111.454 24.6257 111.575 24.8421 111.73 25.0244C111.889 25.2067 112.081 25.348 112.304 25.4482C112.532 25.5485 112.789 25.5986 113.077 25.5986C113.432 25.5986 113.762 25.5303 114.068 25.3936C114.378 25.2523 114.644 25.0404 114.868 24.7578L115.825 25.7969C115.67 26.0202 115.458 26.2344 115.189 26.4395C114.925 26.6445 114.606 26.8132 114.232 26.9453C113.858 27.0729 113.432 27.1367 112.954 27.1367ZM119.219 21.2168V27H117.25V19.6035H119.102L119.219 21.2168ZM121.447 19.5557L121.413 21.3809C121.317 21.3672 121.201 21.3558 121.064 21.3467C120.932 21.333 120.811 21.3262 120.702 21.3262C120.424 21.3262 120.182 21.3626 119.977 21.4355C119.777 21.5039 119.608 21.6064 119.471 21.7432C119.339 21.8799 119.239 22.0462 119.171 22.2422C119.107 22.4382 119.07 22.6615 119.061 22.9121L118.665 22.7891C118.665 22.3105 118.713 21.8708 118.808 21.4697C118.904 21.0641 119.043 20.7109 119.225 20.4102C119.412 20.1094 119.64 19.877 119.909 19.7129C120.178 19.5488 120.485 19.4668 120.832 19.4668C120.941 19.4668 121.053 19.4759 121.167 19.4941C121.281 19.5078 121.374 19.5283 121.447 19.5557Z" fill="#0FA958"/>
</svg>
